<svg width="25" height="24" viewBox="0 0 25 24" fill="none" xmlns="http://www.w3.org/2000/svg">
<path fill-rule="evenodd" clip-rule="evenodd" d="M12.554 7.50716C12.8261 7.19494 13.2999 7.16249 13.6121 7.43468L18.2004 11.4347C18.3637 11.5771 18.4575 11.7833 18.4575 12C18.4575 12.2168 18.3637 12.4229 18.2004 12.5653L13.6121 16.5653C13.2999 16.8375 12.8261 16.8051 12.554 16.4929C12.2818 16.1806 12.3142 15.7069 12.6264 15.4347L15.7059 12.75H6.70752C6.29331 12.75 5.95752 12.4142 5.95752 12C5.95752 11.5858 6.29331 11.25 6.70752 11.25H15.7059L12.6264 8.56534C12.3142 8.29315 12.2818 7.81938 12.554 7.50716Z" fill="#EC2F2F"/>
</svg>
