<svg width="24" height="24" viewBox="0 0 24 24" fill="none" xmlns="http://www.w3.org/2000/svg">
<path fill-rule="evenodd" clip-rule="evenodd" d="M20.6563 14.9703C21.1146 13.0166 21.1146 10.9834 20.6563 9.02975C19.9945 6.20841 17.7916 4.00549 14.9703 3.3437C13.0166 2.88543 10.9834 2.88543 9.02974 3.3437C6.20841 4.0055 4.00549 6.20842 3.3437 9.02975C2.88543 10.9834 2.88543 13.0166 3.3437 14.9703C4.00549 17.7916 6.20841 19.9945 9.02975 20.6563C10.9834 21.1146 13.0166 21.1146 14.9703 20.6563C17.7916 19.9945 19.9945 17.7916 20.6563 14.9703ZM12.5511 9.20062C12.7755 8.97631 13.1391 8.97631 13.3634 9.20062L15.7566 11.5938C15.8644 11.7015 15.9249 11.8476 15.9249 12C15.9249 12.1523 15.8644 12.2984 15.7566 12.4061L13.3634 14.7993C13.1391 15.0236 12.7755 15.0236 12.5511 14.7993C12.3268 14.575 12.3268 14.2113 12.5511 13.987L13.9639 12.5743L8.6495 12.5743C8.33229 12.5743 8.07513 12.3172 8.07513 12C8.07513 11.6828 8.33229 11.4256 8.6495 11.4256L13.9638 11.4256L12.5511 10.0129C12.3268 9.78859 12.3268 9.42492 12.5511 9.20062Z" fill="#363853"/>
</svg>
