<svg width="24" height="24" viewBox="0 0 24 24" fill="none" xmlns="http://www.w3.org/2000/svg">
<path fill-rule="evenodd" clip-rule="evenodd" d="M14.9703 20.6564C13.0166 21.1146 10.9834 21.1146 9.02977 20.6564C6.20842 19.9946 4.0055 17.7916 3.3437 14.9703C2.88543 13.0166 2.88543 10.9834 3.3437 9.02977C4.0055 6.20842 6.20842 4.0055 9.02977 3.3437C10.9834 2.88543 13.0166 2.88543 14.9703 3.3437C17.7916 4.00549 19.9946 6.20842 20.6564 9.02976C21.1146 10.9834 21.1146 13.0166 20.6564 14.9703C19.9946 17.7916 17.7916 19.9946 14.9703 20.6564ZM14.8175 13.3816C15.0518 13.1472 15.0518 12.7673 14.8175 12.533C14.5832 12.2987 14.2033 12.2987 13.969 12.533L12.6 13.902L12.6 8.64949C12.6 8.31812 12.3314 8.04949 12 8.04949C11.6686 8.04949 11.4 8.31812 11.4 8.64949V13.902L10.031 12.533C9.79673 12.2987 9.41683 12.2987 9.18252 12.533C8.9482 12.7673 8.9482 13.1472 9.18252 13.3816L11.5757 15.7748C11.6883 15.8873 11.8409 15.9505 12 15.9505C12.1591 15.9505 12.3117 15.8873 12.4243 15.7748L14.8175 13.3816Z" fill="white"/>
</svg>
