<svg width="24" height="25" viewBox="0 0 24 25" fill="none" xmlns="http://www.w3.org/2000/svg">
<path d="M13.8031 3.80948C12.0439 3.39684 10.2132 3.39684 8.45407 3.80948C5.9014 4.40825 3.90825 6.4014 3.30948 8.95407C2.89684 10.7132 2.89684 12.5439 3.30948 14.3031C3.90825 16.8557 5.9014 18.8489 8.45407 19.4477C10.2132 19.8603 12.0439 19.8603 13.8031 19.4477C14.8355 19.2055 15.7764 18.7352 16.5706 18.0921L19.767 21.2884C20.049 21.5705 20.5064 21.5705 20.7884 21.2884C21.0705 21.0064 21.0705 20.549 20.7884 20.267L17.5921 17.0706C18.2352 16.2764 18.7055 15.3355 18.9477 14.3031C19.3603 12.5439 19.3603 10.7132 18.9477 8.95407C18.3489 6.4014 16.3557 4.40825 13.8031 3.80948Z" fill="white"/>
</svg>
