<svg width="24" height="24" viewBox="0 0 24 24" fill="none" xmlns="http://www.w3.org/2000/svg">
<path fill-rule="evenodd" clip-rule="evenodd" d="M16.5653 4.06392C13.6855 2.64536 10.3146 2.64536 7.43472 4.06392C5.58677 4.97418 4.33441 6.77786 4.12365 8.83784L4.0907 9.15985C3.97981 10.2438 3.97058 11.3358 4.06314 12.4214L4.09407 12.7842C4.14474 13.3786 4.17396 13.7215 4.23084 14.0492C4.53972 15.8288 5.46762 17.4397 6.84819 18.5949C7.10241 18.8076 7.38356 19.0039 7.87138 19.3445L8.12226 19.5196C8.77167 19.9731 9.16436 20.2472 9.56572 20.4415C11.104 21.1862 12.896 21.1862 14.4343 20.4415C14.8357 20.2472 15.2283 19.9731 15.8778 19.5196L16.1285 19.3445C16.6164 19.0039 16.8976 18.8076 17.1518 18.5949C18.5324 17.4397 19.4603 15.8288 19.7692 14.0492C19.826 13.7215 19.8553 13.3786 19.9059 12.7842L19.9369 12.4214C20.0294 11.3358 20.0202 10.2438 19.9093 9.15985L19.8764 8.83784C19.6656 6.77786 18.4132 4.97418 16.5653 4.06392ZM14.9705 9.66041C15.2404 9.91477 15.255 10.3419 15.003 10.6144L11.803 14.076C11.6793 14.2098 11.5071 14.2872 11.3258 14.2903C11.1445 14.2935 10.9697 14.2221 10.8415 14.0927L9.01296 12.2466C8.75186 11.9829 8.75186 11.5556 9.01296 11.292C9.27405 11.0284 9.69736 11.0284 9.95846 11.292L11.2977 12.6441L14.0255 9.69331C14.2775 9.42077 14.7005 9.40605 14.9705 9.66041Z" fill="#0BB77E"/>
</svg>
